<?xml version="1.0" encoding="UTF-8"?>
<svg width="24px" height="24px" viewBox="0 0 24 24" version="1.1" xmlns="http://www.w3.org/2000/svg">
    <g stroke="none" stroke-width="1" fill="none" fill-rule="evenodd">
        <path d="M17.5,3.5 C16.3,4.8 14.4,4.7 13.2,4 C12.1,3.3 11.2,2.8 9.8,2.8 C8.4,2.8 7.2,3.4 6.3,4.4 C4.5,6.4 4.7,10.1 6.7,13.6 C7.7,15.3 8.9,17.2 10.6,17.2 C12.2,17.2 12.7,16.2 14.6,16.2 C16.5,16.2 17,17.2 18.6,17.2 C20.2,17.2 21.3,15.4 22.3,13.7 C23.4,11.8 23.8,9.9 23.8,9.8 C23.7,9.8 20.4,8.6 20.4,5 C20.4,1.9 23.1,0.6 23.2,0.5 C21.3,-0.7 18.7,0.2 17.5,3.5 Z M15.2,0.2 C16.1,0.9 17.4,1.9 17.4,3.6 C17.4,3.7 17.4,3.9 17.4,4 C15.8,4 13.9,2.9 13,2.2 C12.1,1.5 11.1,0.5 11.1,-1.19209290e-07 C12.7,-1.19209290e-07 14.3,0.6 15.2,0.2 Z" fill="#000000"></path>
    </g>
</svg>
